HIERARCHY
ROOT Hips
{
	OFFSET	0.00	0.00	0.00
	CHANNELS 6 Xposition Yposition Zposition Zrotation Xrotation Yrotation
	JOINT LeftUpLeg
	{
		OFFSET	 0.126116	-0.014019	-0.065224
		CHANNELS 3 Zrotation Xrotation Yrotation
		JOINT LeftLeg
		{
			OFFSET	 0.000000	 0.000000	 0.569914
			CHANNELS 3 Zrotation Xrotation Yrotation
			JOINT LeftFoot
			{
				OFFSET	 0.000000	 0.000000	 0.544423
				CHANNELS 3 Zrotation Xrotation Yrotation
				JOINT LeftToeBase
				{
					OFFSET	 0.000000	 0.000000	 0.207117
					CHANNELS 3 Zrotation Xrotation Yrotation
					End Site
					{
						OFFSET	 0.000000	 0.000000	 0.207117
					}
				}
			}
		}
	}
	JOINT RightUpLeg
	{
		OFFSET	-0.124023	-0.008373	-0.065224
		CHANNELS 3 Zrotation Xrotation Yrotation
		JOINT RightLeg
		{
			OFFSET	 0.000000	 0.000000	 0.570047
			CHANNELS 3 Zrotation Xrotation Yrotation
			JOINT RightFoot
			{
				OFFSET	 0.000000	 0.000000	 0.544354
				CHANNELS 3 Zrotation Xrotation Yrotation
				JOINT RightToeBase
				{
					OFFSET	 0.000000	 0.000000	 0.207540
					CHANNELS 3 Zrotation Xrotation Yrotation
					End Site
					{
						OFFSET	 0.000000	 0.000000	 0.207540
					}
				}
			}
		}
	}
	JOINT Spine
	{
		OFFSET	 0.000184	-0.007763	 0.117403
		CHANNELS 3 Zrotation Xrotation Yrotation
		JOINT Spine1
		{
			OFFSET	 0.000000	 0.000000	 0.137269
			CHANNELS 3 Zrotation Xrotation Yrotation
			JOINT Spine2
			{
				OFFSET	 0.000000	 0.000000	 0.156879
				CHANNELS 3 Zrotation Xrotation Yrotation
				JOINT LeftShoulder
				{
					OFFSET	 0.080501	-0.002496	 0.160144
					CHANNELS 3 Zrotation Xrotation Yrotation
					JOINT LeftArm
					{
						OFFSET	 0.000000	 0.000000	 0.164363
						CHANNELS 3 Zrotation Xrotation Yrotation
						JOINT LeftForeArm
						{
							OFFSET	 0.000000	 0.000000	 0.364576
							CHANNELS 3 Zrotation Xrotation Yrotation
							JOINT LeftHand
							{
								OFFSET	 0.000000	 0.000000	 0.360812
								CHANNELS 3 Zrotation Xrotation Yrotation
								JOINT LeftHandIndex1
								{
									OFFSET	 0.000000	 0.000000	 0.086006
									CHANNELS 3 Zrotation Xrotation Yrotation
									JOINT LeftHandIndex2
									{
										OFFSET	 0.000000	 0.000000	 0.047237
										CHANNELS 3 Zrotation Xrotation Yrotation
										JOINT LeftHandIndex3
										{
											OFFSET	-0.004284	-0.000551	 0.038165
											CHANNELS 3 Zrotation Xrotation Yrotation
											End Site
											{
												OFFSET	-0.004284	-0.000551	 0.038165
											}
										}
									}
								}
							}
						}
					}
				}
				JOINT Neck
				{
					OFFSET	 0.000000	 0.000000	 0.176489
					CHANNELS 3 Zrotation Xrotation Yrotation
					JOINT Head
					{
						OFFSET	 0.000000	-0.001747	 0.077940
						CHANNELS 3 Zrotation Xrotation Yrotation
						End Site
						{
							OFFSET	 0.000000	-0.001747	 0.077940
						}
					}
				}
				JOINT RightShoulder
				{
					OFFSET	-0.080363	 0.000306	 0.159706
					CHANNELS 3 Zrotation Xrotation Yrotation
					JOINT RightArm
					{
						OFFSET	 0.000000	 0.000000	 0.164196
						CHANNELS 3 Zrotation Xrotation Yrotation
						JOINT RightForeArm
						{
							OFFSET	 0.000000	 0.000000	 0.365611
							CHANNELS 3 Zrotation Xrotation Yrotation
							JOINT RightHand
							{
								OFFSET	 0.000000	 0.000000	 0.360648
								CHANNELS 3 Zrotation Xrotation Yrotation
								JOINT RightHandIndex1
								{
									OFFSET	 0.000000	 0.000000	 0.069977
									CHANNELS 3 Zrotation Xrotation Yrotation
									JOINT RightHandIndex2
									{
										OFFSET	 0.000000	 0.000000	 0.052305
										CHANNELS 3 Zrotation Xrotation Yrotation
										JOINT RightHandIndex3
										{
											OFFSET	 0.009002	-0.000782	 0.042196
											CHANNELS 3 Zrotation Xrotation Yrotation
											End Site
											{
												OFFSET	 0.009002	-0.000782	 0.042196
											}
										}
									}
								}
							}
						}
					}
				}
			}
		}
	}
}
MOTION
Frames:    10
Frame Time: 0.03333334
-0.437614	-0.033169	 1.274514	-179.695900	-0.612635	 0.512824	 10.740290	-0.161787	 175.721500	 0.760762	-8.317757	 0.028831	-28.070940	 67.333800	 13.119180	-2.385833	 28.452760	 0.000004	 6.810394	-2.118576	-178.980500	-2.510988	-13.798250	-0.963539	 36.986280	 70.051940	-18.439060	 2.384659	 28.388700	-0.000001	 5.155138	 4.756433	-3.905197	 2.711485	-1.651326	 15.031090	-6.635933	 6.521610	-16.033110	-91.776190	 78.527360	-180.000000	-2.265632	-6.752975	-9.025902	 4.465312	-0.055234	-0.489068	-1.897152	-9.316089	-3.435931	-4.130319	 21.525730	 0.991547	-5.167930	 0.731704	 3.519349	-1.378229	 35.397820	-2.634230	-1.087497	-2.013597	 0.506854	-14.272290	-16.409250	-6.294943	 89.782100	 78.203870	-180.000000	 19.460900	-14.836520	 11.877910	-14.144320	-0.066605	 0.468859	-0.180700	 43.852250	 40.972070	 5.716227	 19.173190	-3.685159	 5.027444	 0.246877	-9.377972	-2.350882	 35.473990	 5.254307
-0.437878	-0.033291	 1.274095	-179.501700	-3.034019	 0.848049	 26.747820	 0.110757	 173.345800	-6.570772	-9.389283	-1.169438	-6.947213	 68.011220	-1.959641	-2.385833	 28.452760	 0.000004	 9.096834	 0.463222	-179.809000	 1.959553	-13.743260	 0.103801	 20.127370	 69.914570	-4.788564	 2.384659	 28.388700	-0.000001	 5.517642	 7.691790	-5.225254	 3.068751	 0.418476	 15.430240	-8.638191	 2.974903	-15.824740	-91.776240	 78.527420	-180.000000	-14.446420	-4.204244	-10.523120	 1.967510	-0.034660	-0.504850	-0.004088	-14.022790	-1.646089	-4.130319	 21.525730	 0.991547	-5.167930	 0.731704	 3.519349	-1.378229	 35.397820	-2.634230	-2.533307	 0.258994	 1.385379	-16.702930	-25.295660	-13.791530	 89.782000	 78.203870	-179.999900	 48.756810	-5.661077	 17.605480	-17.608160	-0.097014	 0.476893	-27.574860	 63.084190	 96.245960	 5.716227	 19.173190	-3.685159	 5.027444	 0.246877	-9.377972	-2.350882	 35.473990	 5.254307
-0.438018	-0.033503	 1.273562	-179.337700	-3.409870	 1.146579	 28.901960	-1.345018	 172.688000	-7.791867	-12.350610	-1.798883	-5.586813	 69.189050	-2.211198	-2.385833	 28.452760	 0.000004	 8.893353	 0.217293	-179.958500	 2.631044	-15.007560	 0.287055	 17.180190	 70.183700	-2.280318	 2.384659	 28.388700	-0.000001	 5.369534	 8.269402	-5.504448	 3.044982	 0.446991	 15.018810	-8.957644	 2.653919	-15.529400	-91.776160	 78.527360	 180.000000	-17.345670	-2.530139	 0.024345	 1.125318	-1.345997	-23.375040	-0.219578	-13.320340	-1.869030	-4.130319	 21.525730	 0.991547	-5.167930	 0.731704	 3.519349	-1.378229	 35.397820	-2.634230	-2.815046	 0.696191	 1.714029	-17.417970	-26.676420	-15.452030	 89.782170	 78.203900	 179.999900	 53.983500	-2.382613	 18.246020	-18.003140	-0.103820	 0.495508	-34.954750	 64.216560	 107.507600	 5.716227	 19.173190	-3.685159	 5.027444	 0.246877	-9.377972	-2.350882	 35.473990	 5.254307
-0.438264	-0.033950	 1.272489	-179.131700	-3.877304	 1.510075	 31.233530	-3.449539	 171.859200	-9.329932	-16.753160	-2.877422	-4.220423	 71.126240	-2.298064	-2.385833	 28.452760	 0.000004	 8.633948	-0.580976	-179.950400	 3.430330	-17.625210	 0.577821	 14.316050	 70.991430	 0.057112	 2.384659	 28.388700	-0.000001	 5.050793	 9.021028	-5.810791	 2.911115	 0.496527	 14.408770	-9.337893	 2.248610	-15.119190	-91.776180	 78.527420	-180.000000	-22.395040	 0.775964	 12.476050	-0.304406	-2.133433	-51.746240	-0.754800	-12.384330	-2.098192	-4.130319	 21.525730	 0.991547	-5.167930	 0.731704	 3.519349	-1.378229	 35.397820	-2.634230	-3.152695	 1.211258	 2.117745	-18.335150	-28.263100	-17.488920	 89.782140	 78.203870	 180.000000	 59.275520	 0.967150	-0.819763	-15.689690	-7.848732	 38.815330	 6.711107	 74.683860	 68.163330	 5.716227	 19.173190	-3.685159	 5.027444	 0.246877	-9.377972	-2.350882	 35.473990	 5.254307
-0.438718	-0.034853	 1.270409	-178.825200	-4.029660	 1.470324	 29.819560	-5.738734	 171.837700	-9.678690	-22.892930	-4.019877	-8.839713	 74.823140	 2.487802	-2.385833	 28.452760	 0.000004	 8.205825	-2.713213	-178.988200	 3.619217	-22.542830	 0.804073	 18.559070	 73.250450	-4.648116	 2.384659	 28.388700	-0.000001	 4.048995	 9.510171	-5.675472	 2.396201	 0.226331	 14.048580	-9.202910	 2.544880	-14.890680	-91.776200	 78.527420	-180.000000	-24.108340	 6.315872	 23.948680	-1.635931	-2.804525	-82.895820	-0.641723	-12.536680	-2.109006	-4.130319	 21.525730	 0.991547	-5.167930	 0.731704	 3.519349	-1.378229	 35.397820	-2.634230	-3.152121	 1.184964	 2.287947	-18.318540	-28.019170	-17.956500	 89.782160	 78.203870	 179.999900	 51.560080	 5.795969	-17.445280	-9.165274	-11.704270	 75.009250	 46.840600	 59.716380	 24.216310	 5.716227	 19.173190	-3.685159	 5.027444	 0.246877	-9.377972	-2.350882	 35.473990	 5.254307
-0.439237	-0.035861	 1.268123	-178.571500	-4.171921	 1.394143	 28.502360	-7.507138	 171.859000	-10.041700	-28.120460	-5.042340	-15.393240	 77.962360	 9.145307	-2.385833	 28.452760	 0.000004	 7.968395	-4.557251	-177.895700	 3.762782	-26.860220	 1.012537	 24.289070	 75.044490	-10.864550	 2.384659	 28.388700	-0.000001	 3.045305	 9.973946	-5.493026	 1.834422	 0.090108	 13.671090	-9.113174	 2.696347	-14.675350	-91.776180	 78.527420	 180.000000	-25.263600	 15.479720	 28.691060	-2.790738	-2.830906	-105.896200	-0.526944	-12.690760	-2.103606	-4.130319	 21.525730	 0.991547	-5.167930	 0.731704	 3.519349	-1.378229	 35.397820	-2.634230	-3.125191	 1.098601	 2.345077	-18.232510	-27.709010	-18.091540	 89.782040	 78.203900	-180.000000	 40.069000	 14.870780	-24.450090	-4.304266	-11.601580	 98.652860	 47.155290	 40.075550	 16.589330	 5.716227	 19.173190	-3.685159	 5.027444	 0.246877	-9.377972	-2.350882	 35.473990	 5.254307
-0.440110	-0.037245	 1.264991	-178.190900	-4.448770	 1.230446	 27.292960	-9.196637	 171.877600	-10.882600	-33.848190	-6.433233	-26.720870	 81.103820	 20.803750	-2.385833	 28.452760	 0.000004	 7.718638	-6.432326	-176.329900	 4.063746	-31.629520	 1.333255	 32.026950	 76.644370	-19.307970	 2.384659	 28.388700	-0.000001	 1.708770	 10.729060	-5.139604	 1.124620	 0.054185	 13.060950	-9.176319	 2.566127	-14.326990	-91.776130	 78.527400	 180.000000	-20.732780	 35.867710	 21.306300	-3.638667	-2.439155	-124.164500	-0.519262	-12.632470	-2.108527	-4.130319	 21.525730	 0.991547	-5.167930	 0.731704	 3.519349	-1.378229	 35.397820	-2.634230	-3.082234	 0.834923	 2.080212	-18.118240	-27.377930	-17.600470	 89.782060	 78.203890	-180.000000	 17.218910	 31.933780	-15.031380	-1.690368	-9.854585	 114.054400	 34.454940	 12.941850	 12.510170	 5.716227	 19.173190	-3.685159	 5.027444	 0.246877	-9.377972	-2.350882	 35.473990	 5.254307
-0.441373	-0.038831	 1.261531	-177.764700	-4.762254	 1.071593	 25.962800	-10.523950	 171.928600	-11.837760	-39.138460	-7.900375	-48.505710	 83.508040	 42.872060	-2.385833	 28.452760	 0.000004	 7.521566	-8.052328	-174.566100	 4.407221	-35.965520	 1.695040	 41.233920	 77.621620	-29.327150	 2.384659	 28.388700	-0.000001	 0.239075	 11.427870	-4.775453	 0.371068	 0.340958	 12.449810	-9.331486	 2.199642	-14.005850	-91.776170	 78.527380	 180.000000	 13.568310	 54.675290	-22.628640	-3.592734	-2.467138	-123.128900	-0.516321	-12.573160	-2.113235	-4.130319	 21.525730	 0.991547	-5.167930	 0.731704	 3.519349	-1.378229	 35.397820	-2.634230	-3.036548	 0.463705	 1.619979	-17.940500	-26.932380	-16.599890	 89.782150	 78.203850	 180.000000	-19.610400	 44.228010	 23.722290	-2.975221	-9.636678	 107.846400	 13.812700	-10.434630	 7.920014	 5.716227	 19.173190	-3.685159	 5.027444	 0.246877	-9.377972	-2.350882	 35.473990	 5.254307
-0.443450	-0.040535	 1.258103	-177.126700	-5.188973	 0.907090	 24.074890	-11.241910	 172.125900	-12.681420	-43.562160	-9.212050	-82.638110	 84.128610	 77.153480	-2.385833	 28.452760	 0.000004	 6.993075	-9.205242	-172.715500	 4.820641	-39.527500	 2.100389	 49.371330	 77.924040	-38.320590	 2.384659	 28.388700	-0.000001	-1.380905	 11.919990	-4.446151	-0.266628	 1.424370	 12.018980	-9.756985	 1.230935	-13.815770	-91.776130	 78.527400	 180.000000	 46.097160	 49.955780	-70.601660	-2.590285	-2.863650	-101.972400	-0.528962	-12.503240	-2.117260	-4.130319	 21.525730	 0.991547	-5.167930	 0.731704	 3.519349	-1.378229	 35.397820	-2.634230	-2.982670	-0.312807	 0.446743	-17.550240	-26.054080	-13.761450	 89.782100	 78.203890	 180.000000	-49.214730	 44.034860	 66.023010	-7.688583	-10.295070	 80.974700	 0.798371	-24.044850	 11.304420	 5.716227	 19.173190	-3.685159	 5.027444	 0.246877	-9.377972	-2.350882	 35.473990	 5.254307
-0.446918	-0.042038	 1.256198	-176.558200	-5.482553	 0.717591	 22.333900	-11.241610	 172.602300	-13.027040	-45.588540	-9.796272	-99.976120	 83.491600	 94.522640	-2.385833	 28.452760	 0.000004	 6.138869	-9.761492	-171.375200	 5.167734	-41.254320	 2.405415	 51.346730	 77.581470	-40.893750	 2.384659	 28.388700	-0.000001	-2.602243	 12.206160	-4.250031	-0.530451	 1.974900	 12.315550	-9.947510	 0.955665	-13.980670	-91.776180	 78.527350	 180.000000	 52.558570	 45.915450	-87.414070	-1.732081	-2.868071	-85.007120	-0.575549	-12.305840	-2.127333	-4.130319	 21.525730	 0.991547	-5.167930	 0.731704	 3.519349	-1.378229	 35.397820	-2.634230	-3.231159	 0.099813	 0.537923	-17.761860	-26.217600	-13.988490	 89.782240	 78.203890	 179.999900	-58.159400	 42.664920	 84.742130	-11.266780	-9.150464	 60.221450	 0.956967	-29.801700	 18.801740	 5.716227	 19.173190	-3.685159	 5.027444	 0.246877	-9.377972	-2.350882	 35.473990	 5.254307
